<svg width="330" height="380" viewBox="0 0 330 380" fill="none" xmlns="http://www.w3.org/2000/svg">
<path d="M149.545 8.66026C158.827 3.30127 170.263 3.30127 179.545 8.66025L314.09 86.3397C323.372 91.6987 329.09 101.603 329.09 112.321V267.679C329.09 278.397 323.372 288.301 314.09 293.66L179.545 371.34C170.263 376.699 158.827 376.699 149.545 371.34L15 293.66C5.71797 288.301 0 278.397 0 267.679V112.321C0 101.603 5.71797 91.6987 15 86.3397L149.545 8.66026Z" fill="url(#paint0_angular_1_44)"/>
<path d="M149.545 8.66026C158.827 3.30127 170.263 3.30127 179.545 8.66025L314.09 86.3397C323.372 91.6987 329.09 101.603 329.09 112.321V267.679C329.09 278.397 323.372 288.301 314.09 293.66L179.545 371.34C170.263 376.699 158.827 376.699 149.545 371.34L15 293.66C5.71797 288.301 0 278.397 0 267.679V112.321C0 101.603 5.71797 91.6987 15 86.3397L149.545 8.66026Z" fill="url(#paint1_linear_1_44)"/>
<mask id="mask0_1_44" style="mask-type:alpha" maskUnits="userSpaceOnUse" x="0" y="4" width="330" height="372">
<path d="M149.545 8.66026C158.827 3.30127 170.263 3.30127 179.545 8.66025L314.09 86.3397C323.372 91.6987 329.09 101.603 329.09 112.321V267.679C329.09 278.397 323.372 288.301 314.09 293.66L179.545 371.34C170.263 376.699 158.827 376.699 149.545 371.34L15 293.66C5.71797 288.301 0 278.397 0 267.679V112.321C0 101.603 5.71797 91.6987 15 86.3397L149.545 8.66026Z" fill="#E18DF6"/>
</mask>
<g mask="url(#mask0_1_44)">
<g filter="url(#filter0_bi_1_44)">
<path fill-rule="evenodd" clip-rule="evenodd" d="M164.298 113.456C163.541 113.078 162.51 112.735 160.159 113.5C152.241 116.074 145.614 124.391 141.106 140.714C136.752 156.477 135.295 176.412 134.583 196.741C134.387 202.336 134.248 207.998 134.111 213.585C133.765 227.735 133.43 241.402 132.207 252.275C131.359 259.818 129.989 267.145 127.335 272.833C124.74 278.393 119.188 285.612 108.669 285.612C99.025 285.612 93.1067 279.579 89.8495 274.422C86.5564 269.208 84.3261 262.479 82.5818 255.654C80.4567 247.337 78.6429 236.971 76.8026 226.453C75.6717 219.99 74.5309 213.47 73.3016 207.333C69.8725 190.213 65.6379 175.135 59.1317 165.22C55.9705 160.402 52.6997 157.484 49.4479 155.936C46.4193 154.494 42.47 153.784 36.7154 154.943C27.4695 156.803 21.6076 163.005 16.6439 175.012C14.1745 180.986 12.1976 187.766 10.1257 195.245C9.8721 196.161 9.61685 197.088 9.35908 198.023C7.56266 204.546 5.64464 211.511 3.30486 218.179C-1.98179 233.246 -10.2423 249.403 -27.7986 258.468C-45.4977 267.607 -69.545 268.007 -102.271 258.579C-108.111 256.897 -111.335 251.258 -109.472 245.985C-107.608 240.712 -101.363 237.801 -95.5233 239.483C-65.3286 248.182 -48.6555 246.148 -38.8194 241.069C-28.8405 235.916 -22.7511 226.07 -17.8581 212.125C-15.746 206.106 -14.0098 199.807 -12.1954 193.224C-11.9358 192.283 -11.6746 191.335 -11.4104 190.381C-9.35069 182.946 -7.11172 175.157 -4.15413 168.003C1.73618 153.755 11.5731 139.467 31.8857 135.379C42.1163 133.32 51.5434 134.273 59.8019 138.205C67.8372 142.03 73.7641 148.196 78.2308 155.003C86.9805 168.337 91.7225 186.67 95.1468 203.766C96.6011 211.026 97.8116 217.99 98.9553 224.569C100.661 234.383 102.218 243.341 104.213 251.147C105.444 255.966 106.688 259.63 107.92 262.245C108.786 259.389 109.539 255.427 110.121 250.25C111.25 240.214 111.553 227.827 111.89 214.07C112.031 208.3 112.178 202.288 112.395 196.107C113.107 175.755 114.583 153.908 119.566 135.864C124.395 118.378 133.511 100.859 152.638 94.6408C160.415 92.1126 168.161 92.4833 175.033 95.911C181.412 99.093 185.929 104.356 189.211 109.732C195.729 120.405 199.616 135.292 202.243 149.547C204.713 162.952 206.248 176.924 207.49 188.229C207.593 189.164 207.694 190.081 207.793 190.978C207.85 191.492 207.906 191.998 207.962 192.497C208.999 190.881 210.089 189.263 211.22 187.727C214.201 183.676 218.599 178.535 224.693 175.784C226.526 174.956 228.861 174.35 231.526 174.497C234.218 174.646 236.505 175.522 238.276 176.636C241.447 178.63 243.091 181.446 243.925 183.12C245.714 186.709 246.789 191.427 247.569 195.907C248.932 203.742 249.878 214.07 250.813 224.267C250.985 226.15 251.157 228.029 251.332 229.886C252.066 237.71 252.838 245.172 253.804 251.584C254.932 245.88 255.883 239.568 256.905 232.782C257.609 228.115 258.346 223.224 259.197 218.152C261.348 205.339 264.209 191.629 269.239 180.97C274.096 170.676 282.978 159.334 299.031 159.334C315.443 159.334 323.727 171.216 327.985 181.296C332.4 191.745 334.713 205.146 336.711 216.869L336.785 217.304C338.878 229.589 340.641 239.933 343.531 246.898C344.774 249.894 345.847 251.267 346.393 251.799C346.45 251.787 346.513 251.773 346.583 251.755C353.096 250.133 358.233 248.298 363.218 246.42C363.907 246.16 364.605 245.895 365.312 245.626C369.591 244 374.198 242.249 379.224 240.846C391.623 237.386 405.997 236.141 430.377 239.098C436.452 239.835 440.716 244.88 439.9 250.366C439.084 255.851 433.497 259.701 427.421 258.964C405.182 256.267 394.23 257.638 385.779 259.997C381.88 261.085 378.381 262.412 374.066 264.048C373.326 264.329 372.561 264.619 371.767 264.918C366.464 266.916 360.33 269.124 352.487 271.077C345.22 272.888 338.205 271.679 332.574 267.519C327.653 263.884 324.705 258.66 322.743 253.93C319.023 244.966 316.96 232.817 315.081 221.75C314.977 221.135 314.873 220.524 314.769 219.917C312.674 207.622 310.651 196.505 307.244 188.44C303.681 180.006 300.656 179.378 299.031 179.378C297.047 179.378 293.65 180.376 289.662 188.826C285.847 196.911 283.296 208.35 281.146 221.156C280.418 225.492 279.728 230.051 279.041 234.598C277.801 242.792 276.567 250.952 275.122 257.717C273.978 263.072 272.561 268.318 270.591 272.664C268.83 276.547 265.601 282.097 259.225 284.713C255.726 286.149 251.499 286.557 247.325 285.035C243.563 283.664 241.14 281.191 239.664 279.228C236.824 275.452 235.176 270.435 234.049 265.928C231.691 256.5 230.343 243.637 229.211 231.578C229.026 229.603 228.846 227.646 228.669 225.719C227.927 217.645 227.233 210.089 226.373 203.804C225.339 205.464 224.305 207.206 223.241 208.999C222.998 209.408 222.754 209.819 222.508 210.233L222.43 210.364C220.32 213.91 217.509 218.635 214.41 221.674C213.009 223.049 209.54 226.156 204.172 226.493C197.562 226.906 193.438 223.056 191.562 220.515C189.965 218.352 189.232 215.841 188.854 214.422C188.384 212.655 187.996 210.62 187.655 208.502C186.972 204.258 186.353 198.849 185.703 192.968C185.606 192.09 185.508 191.198 185.408 190.293C184.154 178.893 182.687 165.555 180.344 152.836C177.768 138.851 174.336 126.885 169.771 119.411C167.513 115.713 165.547 114.079 164.298 113.456ZM346.025 251.851C346.025 251.851 346.029 251.851 346.04 251.851C346.031 251.852 346.025 251.851 346.025 251.851Z" fill="white" fill-opacity="0.8"/>
</g>
</g>
<defs>
<filter id="filter0_bi_1_44" x="-140" y="63" width="610" height="253" filterUnits="userSpaceOnUse" color-interpolation-filters="sRGB">
<feFlood flood-opacity="0" result="BackgroundImageFix"/>
<feGaussianBlur in="BackgroundImage" stdDeviation="15"/>
<feComposite in2="SourceAlpha" operator="in" result="effect1_backgroundBlur_1_44"/>
<feBlend mode="normal" in="SourceGraphic" in2="effect1_backgroundBlur_1_44" result="shape"/>
<feColorMatrix in="SourceAlpha" type="matrix" values="0 0 0 0 0 0 0 0 0 0 0 0 0 0 0 0 0 0 127 0" result="hardAlpha"/>
<feOffset dx="2" dy="4"/>
<feGaussianBlur stdDeviation="3"/>
<feComposite in2="hardAlpha" operator="arithmetic" k2="-1" k3="1"/>
<feColorMatrix type="matrix" values="0 0 0 0 0.686275 0 0 0 0 0.309804 0 0 0 0 0.87451 0 0 0 1 0"/>
<feBlend mode="normal" in2="shape" result="effect2_innerShadow_1_44"/>
</filter>
<radialGradient id="paint0_angular_1_44" cx="0" cy="0" r="1" gradientUnits="userSpaceOnUse" gradientTransform="translate(164.545 190) rotate(-42.1437) scale(283.163 287.944)">
<stop offset="0.218547" stop-color="#CE63F2"/>
<stop offset="0.522374" stop-color="#AE31E8"/>
<stop offset="0.879885" stop-color="#E18DF6"/>
</radialGradient>
<linearGradient id="paint1_linear_1_44" x1="-2.49403e-06" y1="48" x2="291.5" y2="343.5" gradientUnits="userSpaceOnUse">
<stop stop-color="#CB69EC"/>
<stop offset="0.452065" stop-color="#A928CA" stop-opacity="0.92"/>
<stop offset="0.879568" stop-color="#6A4FF5" stop-opacity="0.872396"/>
</linearGradient>
</defs>
</svg>
